PathFileType	4	(X/Y/Z)	D:\TRACE\v60_Jaco2_6-2-23\v60_baseline_1-platform.trc
DataRate	CameraRate	NumFrames	NumMarkers	Units	OrigDataRate	OrigDataStartFrame	OrigNumFrames
100.00	100.00	      55	5	mm	100.00	3126	      6251
Frame#	Time	Left_Front			Right_Front			Left_Aft			Right_Aft			Post			
		X1	Y1	Z1	X2	Y2	Z2	X3	Y3	Z3	X4	Y4	Z4	X5	Y5	Z5	

3126	31.250	-800.55414	8.88091	-638.86597	769.36993	10.18350	-644.40106	-708.74133	8.07473	496.06927	733.69873	7.03727	505.70441	-14.17718	1308.28162	-961.59662	
3127	31.260	-800.66180	8.87162	-638.74591	769.39636	10.21024	-644.41943	-708.75153	8.03919	496.10083	733.56104	6.93827	505.74484	-14.18821	1308.32861	-961.81140	
3128	31.270	-800.67841	8.79438	-638.72607	769.38696	10.22069	-644.43091	-708.79626	7.99854	496.12183	733.46655	6.85241	505.74860	-14.09798	1308.33997	-961.95270	
3129	31.280	-800.60431	8.67742	-638.83856	769.38135	10.18769	-644.43420	-708.77319	7.97260	496.12567	733.51013	6.89381	505.75385	-14.15952	1308.30286	-962.03180	
3130	31.290	-800.54156	8.79393	-638.87665	769.37115	10.13231	-644.42969	-708.72241	8.00987	496.08234	733.59302	6.96315	505.71674	-14.06661	1308.26172	-961.93304	
3131	31.300	-800.54871	8.90167	-638.80884	769.43195	10.13942	-644.38147	-708.72675	8.04480	496.07669	733.33813	7.04074	505.87836	-14.08920	1308.36597	-961.95813	
3132	31.310	-800.64124	8.86181	-638.74139	769.41077	10.17308	-644.43396	-708.69781	8.04946	496.12930	733.54980	6.89184	505.73694	-14.10264	1308.29639	-961.87854	
3133	31.320	-800.69507	8.83557	-638.70258	769.43616	10.25020	-644.40735	-708.75012	8.00738	496.10791	733.47644	6.87946	505.77820	-14.12586	1308.22888	-961.70905	
3134	31.330	-800.67859	8.77166	-638.73145	769.38269	10.13614	-644.44037	-708.80005	8.03283	496.08820	733.48309	6.85783	505.74997	-14.12337	1308.18738	-961.54749	
3135	31.340	-800.54767	8.93194	-638.79437	769.35199	10.14942	-644.42792	-708.75562	8.04020	496.07141	733.53632	6.95341	505.73050	-14.15153	1308.16479	-961.47668	
3136	31.350	-800.45013	9.13201	-638.88934	769.41681	10.27126	-644.43396	-708.76923	8.08818	495.98660	733.64026	7.07943	505.71915	-14.14676	1308.22009	-961.48285	
3137	31.360	-800.55695	8.99034	-638.79047	769.40302	10.19956	-644.41357	-708.72559	8.02860	496.06326	733.61237	7.02482	505.73816	-14.17233	1308.31628	-961.58661	
3138	31.370	-800.67224	8.83584	-638.69867	769.43951	10.05435	-644.30927	-708.72168	7.90781	496.12933	733.50806	6.91640	505.76907	-14.13025	1308.32007	-961.80664	
3139	31.380	-800.67090	8.73776	-638.75024	769.48199	9.86044	-644.33612	-708.76715	7.79838	496.14233	733.46735	6.88306	505.78433	-14.39846	1308.35168	-961.83923	
3140	31.390	-800.63025	8.61561	-638.84320	769.39874	10.09508	-644.39557	-708.80634	7.90694	496.09451	733.51190	6.89819	505.76785	-14.14012	1308.33154	-961.86108	
3141	31.400	-800.52509	8.86623	-638.92059	769.40704	10.11654	-644.39240	-708.69861	7.80202	496.11636	733.58704	6.95743	505.77423	-14.02201	1308.35242	-961.78552	
3142	31.410	-800.42761	9.12605	-638.89099	769.42175	10.06788	-644.37891	-708.69250	7.96395	496.09174	733.34613	7.10042	505.87183	-14.26220	1308.35742	-961.65125	
3143	31.420	-800.54102	9.02275	-638.76074	769.41083	10.11567	-644.37378	-708.57263	7.80730	496.12939	733.55383	6.97740	505.76059	-14.20035	1308.25989	-961.56763	
3144	31.430	-800.67865	8.79744	-638.75702	769.41406	10.14635	-644.35162	-708.58240	7.66949	496.18600	733.51385	6.93715	505.74670	-14.23185	1308.24084	-961.57666	
3145	31.440	-800.65027	8.67036	-638.84387	769.44366	10.06906	-644.32526	-708.60883	7.52337	496.13602	733.51935	6.97069	505.77716	-14.19732	1308.16174	-961.54895	
3146	31.450	-800.54364	8.76400	-638.88232	769.33282	10.02641	-644.35120	-708.59668	7.47636	496.02518	733.54187	6.99750	505.76218	-14.24032	1308.14307	-961.64508	
3147	31.460	-800.45032	8.97695	-638.93628	769.36560	10.07284	-644.38776	-708.50323	7.53475	496.10532	733.67450	7.08166	505.74124	-14.07233	1308.21887	-961.75555	
3148	31.470	-800.50745	9.04252	-638.77325	769.36493	10.14280	-644.39301	-708.66614	7.96425	496.14285	733.62762	7.00465	505.77615	-14.04145	1308.38245	-961.93585	
3149	31.480	-800.66168	9.01642	-638.66705	769.40033	10.17077	-644.40857	-708.72656	7.95104	496.14542	733.47900	6.91467	505.80377	-14.16829	1308.35571	-962.02020	
3150	31.490	-800.70892	8.92731	-638.65851	769.33734	10.19859	-644.38049	-708.79510	7.90087	496.11093	733.45062	6.90702	505.78098	-14.25773	1308.37964	-961.97607	
3151	31.500	-800.65424	8.84068	-638.84851	769.37756	10.07778	-644.40637	-708.78119	7.80869	496.10007	733.46350	6.91846	505.77664	-14.12970	1308.24646	-961.83704	
3152	31.510	-800.46210	8.87838	-638.96075	769.34308	10.03348	-644.38391	-708.67999	7.85418	496.06824	733.55627	7.01422	505.74463	-14.19409	1308.16248	-961.56531	
3153	31.520	-800.45233	8.95888	-638.90613	769.43652	9.98206	-644.34790	-708.69733	7.96891	496.10004	733.68713	7.07578	505.74283	-14.20144	1308.16479	-961.40137	
3154	31.530	-800.58612	9.00503	-638.72455	769.41553	10.09295	-644.36157	-708.68115	7.98531	496.11145	733.29779	7.04824	505.90228	-14.14045	1308.17249	-961.43579	
3155	31.540	-800.67230	8.91802	-638.68738	769.44263	10.12825	-644.37408	-708.76605	7.96419	496.10126	732.78632	6.36931	505.78467	-14.16636	1308.21484	-961.60376	
3156	31.550	-800.69055	8.90329	-638.72852	769.38086	10.05666	-644.37384	-708.82971	7.88019	496.09927	732.66187	6.34186	505.90567	-14.34633	1308.23218	-961.71320	
3157	31.560	-800.53534	8.81703	-638.89844	769.30518	10.02367	-644.41302	-708.76599	7.81188	496.05331	732.71381	6.32120	505.86987	-14.14816	1308.24109	-961.89862	
3158	31.570	-800.46613	8.88087	-638.90631	769.38635	9.99418	-644.35083	-708.72247	7.89205	496.01678	732.42084	6.50712	506.16937	-14.11830	1308.30164	-961.96466	
3159	31.580	-800.47803	8.95454	-638.76288	769.35760	10.07719	-644.34698	-708.66376	7.93477	496.10059	732.97058	6.57134	505.99118	-14.13134	1308.32654	-962.01111	
3160	31.590	-800.60114	9.09201	-638.67889	769.38849	10.14530	-644.43793	-708.71307	7.94902	496.11804	732.96393	6.58099	506.01819	-14.24507	1308.33777	-962.00104	
3161	31.600	-800.67731	8.89579	-638.69958	769.33795	10.15669	-644.40601	-708.77173	7.88860	496.12796	732.89526	6.52003	505.99869	-14.24187	1308.32568	-961.90192	
3162	31.610	-800.60864	8.80250	-638.79456	769.39935	10.09202	-644.38531	-708.76068	7.90653	496.08524	732.46368	6.57073	506.21201	-14.31832	1308.20068	-961.64020	
3163	31.620	-800.52026	8.80161	-638.88678	769.39496	9.98636	-644.36011	-708.68884	7.87383	496.06238	732.91864	6.54018	505.98715	-14.20018	1308.10620	-961.52679	
3164	31.630	-800.49530	8.93929	-638.86646	769.31042	10.04210	-644.34436	-708.56818	7.66061	496.03851	732.95770	6.60337	505.96674	-14.21658	1308.15576	-961.53259	
3165	31.640	-800.57874	9.05229	-638.73248	769.41693	10.07653	-644.33954	-707.90857	6.84544	496.93561	732.92639	6.55628	505.94684	-14.21461	1308.21997	-961.58655	
3166	31.650	-800.68170	9.02322	-638.65222	769.34741	10.17604	-644.37268	-708.63135	7.67546	496.10999	732.96716	6.55217	505.85593	-14.23741	1308.25720	-961.75110	
3167	31.660	-800.66742	8.92679	-638.67175	769.32800	10.17071	-644.43359	-708.61975	7.60530	496.14755	732.94885	6.53327	505.82529	-14.20413	1308.29797	-961.85956	
3168	31.670	-800.56720	8.91212	-638.76532	769.35632	10.10031	-644.40375	-708.57428	7.54655	496.48502	733.06744	6.56295	505.85806	-14.18754	1308.27380	-961.90930	
3169	31.680	-800.52679	8.93030	-638.84949	769.35724	10.06626	-644.34741	-708.56531	7.61749	496.18539	732.71960	6.64792	506.01553	-14.12186	1308.29773	-961.86969	
3170	31.690	-800.54285	8.97574	-638.79907	769.40015	10.02879	-644.36658	-708.52637	7.64877	496.19476	733.01373	6.60515	505.84091	-14.11837	1308.27441	-961.79608	
3171	31.700	-800.63940	8.99416	-638.72345	769.37836	10.10689	-644.40466	-708.57928	7.63374	496.18143	732.96942	6.53077	505.78558	-14.27102	1308.23242	-961.72717	
3172	31.710	-800.67926	8.89836	-638.66443	769.38348	10.09745	-644.40503	-709.07721	8.37470	495.75458	733.01031	6.58994	505.79132	-14.22712	1308.21716	-961.67072	
3173	31.720	-800.60553	8.87332	-638.73889	769.41321	10.08175	-644.39301	-708.79803	7.97333	495.95096	733.08301	6.63367	505.84039	-14.13080	1308.17615	-961.58600	
3174	31.730	-800.48322	8.87294	-638.88434	769.36426	10.06169	-644.35358	-708.63220	7.84256	496.05396	733.12085	6.71901	505.89407	-14.18877	1308.20947	-961.58704	
3175	31.740	-800.46637	9.01981	-638.86719	769.35339	10.11954	-644.43256	-708.63275	7.85120	496.04202	733.18292	6.78860	505.93503	-14.21052	1308.24927	-961.71515	
3176	31.750	-800.58734	9.16231	-638.73560	769.38879	10.26784	-644.44470	-708.69189	7.90919	495.94180	732.83911	6.81474	505.99203	-14.18093	1308.21338	-961.80627	
3177	31.760	-800.61835	9.13514	-638.64203	769.35040	10.36947	-644.45355	-708.77484	7.95066	495.97583	733.27405	6.78322	505.81729	-14.15760	1308.26843	-961.89215	
3178	31.770	-800.67383	8.85529	-638.64960	769.43109	10.19924	-644.42279	-708.73755	7.96849	495.97144	733.39313	6.75641	505.85886	-14.15152	1308.35852	-961.99969	
3179	31.780	-800.63452	8.64539	-638.89001	769.41058	10.09443	-644.42609	-708.76849	8.04555	495.90070	733.42609	6.91171	505.84564	-14.21445	1308.26782	-961.85736	
3180	31.790	-800.59888	8.65883	-638.90424	769.43079	10.02942	-644.37109	-708.77606	8.03692	495.87018	733.40924	6.89172	505.85321	-14.06880	1308.12097	-961.76868	
